<svg width="59" height="59" viewBox="0 0 59 59" fill="none" xmlns="http://www.w3.org/2000/svg">
<circle cx="29.5" cy="29.5" r="24.5" fill="#ACDBFA"/>
<circle cx="29.5" cy="29.5" r="29.5" fill="#FFC3BF"/>
<circle cx="29.5" cy="29.5" r="24.5" fill="#FFE5E3"/>
<circle cx="29.5" cy="29.5" r="20.5" fill="#FFFAF9"/>
<g clip-path="url(#clip0_218_7782)">
<path d="M40.2 33.6335L32.0016 19.3957C31.7967 19.0469 31.5042 18.7576 31.1532 18.5567C30.8021 18.3557 30.4046 18.25 30 18.25C29.5955 18.25 29.198 18.3557 28.8469 18.5567C28.4958 18.7576 28.2033 19.0469 27.9985 19.3957L19.8 33.6335C19.6029 33.9709 19.499 34.3546 19.499 34.7454C19.499 35.1361 19.6029 35.5199 19.8 35.8572C20.0023 36.2082 20.2943 36.499 20.646 36.6998C20.9977 36.9006 21.3966 37.0043 21.8016 37.0001H38.1985C38.6032 37.0039 39.0016 36.9001 39.353 36.6993C39.7044 36.4985 39.9961 36.2079 40.1982 35.8572C40.3956 35.52 40.4998 35.1364 40.5001 34.7456C40.5004 34.3549 40.3969 33.9711 40.2 33.6335ZM38.8997 35.1063C38.8282 35.2282 38.7256 35.3289 38.6024 35.3981C38.4792 35.4673 38.3398 35.5025 38.1985 35.5001H21.8016C21.6603 35.5025 21.5209 35.4673 21.3977 35.3981C21.2744 35.3289 21.1718 35.2282 21.1003 35.1063C21.0356 34.9967 21.0015 34.8717 21.0015 34.7444C21.0015 34.6171 21.0356 34.4922 21.1003 34.3826L29.2988 20.1447C29.3717 20.0234 29.4748 19.923 29.598 19.8533C29.7212 19.7836 29.8603 19.747 30.0019 19.747C30.1435 19.747 30.2826 19.7836 30.4058 19.8533C30.529 19.923 30.6321 20.0234 30.705 20.1447L38.9035 34.3826C38.9676 34.4925 39.0011 34.6176 39.0005 34.7449C38.9998 34.8722 38.965 34.997 38.8997 35.1063ZM29.25 29.5001V25.7501C29.25 25.5511 29.329 25.3604 29.4697 25.2197C29.6104 25.0791 29.8011 25.0001 30 25.0001C30.1989 25.0001 30.3897 25.0791 30.5304 25.2197C30.671 25.3604 30.75 25.5511 30.75 25.7501V29.5001C30.75 29.699 30.671 29.8897 30.5304 30.0304C30.3897 30.171 30.1989 30.2501 30 30.2501C29.8011 30.2501 29.6104 30.171 29.4697 30.0304C29.329 29.8897 29.25 29.699 29.25 29.5001ZM31.125 32.8751C31.125 33.0976 31.059 33.3151 30.9354 33.5001C30.8118 33.6851 30.6361 33.8293 30.4305 33.9144C30.225 33.9996 29.9988 34.0219 29.7806 33.9784C29.5623 33.935 29.3619 33.8279 29.2045 33.6706C29.0472 33.5132 28.9401 33.3128 28.8966 33.0945C28.8532 32.8763 28.8755 32.6501 28.9607 32.4445C29.0458 32.239 29.19 32.0633 29.375 31.9397C29.56 31.816 29.7775 31.7501 30 31.7501C30.2984 31.7501 30.5845 31.8686 30.7955 32.0796C31.0065 32.2905 31.125 32.5767 31.125 32.8751Z" fill="#CC0905"/>
</g>
<defs>
<clipPath id="clip0_218_7782">
<rect width="24" height="24" fill="white" transform="translate(18 18)"/>
</clipPath>
</defs>
</svg>
