<svg width="51" height="52" viewBox="0 0 51 52" fill="none" xmlns="http://www.w3.org/2000/svg">
<path d="M20.7 50C11.6496 50 7.1232 50 4.3128 47.1872C1.5 44.3768 1.5 42.2504 1.5 33.2M49.5 33.2C49.5 42.2504 49.5 44.3768 46.6872 47.1872C43.8768 50 39.3504 50 30.3 50M30.3 2C39.3504 2 43.8768 2 46.6872 4.8128C49.5 7.6232 49.5 9.7496 49.5 18.8M20.7 2C11.6496 2 7.1232 2 4.3128 4.8128C1.5 7.6232 1.5 9.7496 1.5 18.8" stroke="#30A5F3" strokeWidth="3" stroke-linecap="round"/>
<path d="M10.84 30.944C9.41202 29.288 8.69922 28.46 8.69922 26C8.69922 23.54 9.41202 22.712 10.84 21.056C13.6912 17.7488 18.472 14 25.4992 14C32.524 14 37.3072 17.7488 40.1584 21.056C41.5864 22.712 42.2992 23.54 42.2992 26C42.2992 28.46 41.5864 29.288 40.1584 30.944C37.3072 34.2512 32.5264 38 25.4992 38C18.4744 38 13.6912 34.2512 10.84 30.944Z" stroke="#30A5F3" strokeWidth="3"/>
<path d="M25.4992 30.8C28.1502 30.8 30.2992 28.651 30.2992 26C30.2992 23.349 28.1502 21.2 25.4992 21.2C22.8483 21.2 20.6992 23.349 20.6992 26C20.6992 28.651 22.8483 30.8 25.4992 30.8Z" stroke="#30A5F3" strokeWidth="3"/>
</svg>
