<svg width="145" height="145" viewBox="0 0 145 145" fill="none" xmlns="http://www.w3.org/2000/svg">
<rect x="0.5" y="0.5" width="144" height="144" rx="72" fill="#FBFDFF"/>
<path d="M67.7 96.5C58.6496 96.5 54.1232 96.5 51.3128 93.6872C48.5 90.8768 48.5 88.7504 48.5 79.7M96.5 79.7C96.5 88.7504 96.5 90.8768 93.6872 93.6872C90.8768 96.5 86.3504 96.5 77.3 96.5M77.3 48.5C86.3504 48.5 90.8768 48.5 93.6872 51.3128C96.5 54.1232 96.5 56.2496 96.5 65.3M67.7 48.5C58.6496 48.5 54.1232 48.5 51.3128 51.3128C48.5 54.1232 48.5 56.2496 48.5 65.3" stroke="#30A5F3" stroke-width="3" stroke-linecap="round"/>
<path d="M57.84 77.444C56.412 75.788 55.6992 74.96 55.6992 72.5C55.6992 70.04 56.412 69.212 57.84 67.556C60.6912 64.2488 65.472 60.5 72.4992 60.5C79.524 60.5 84.3072 64.2488 87.1584 67.556C88.5864 69.212 89.2992 70.04 89.2992 72.5C89.2992 74.96 88.5864 75.788 87.1584 77.444C84.3072 80.7512 79.5264 84.5 72.4992 84.5C65.4744 84.5 60.6912 80.7512 57.84 77.444Z" stroke="#30A5F3" stroke-width="3"/>
<path d="M72.4992 77.3C75.1502 77.3 77.2992 75.151 77.2992 72.5C77.2992 69.849 75.1502 67.7 72.4992 67.7C69.8483 67.7 67.6992 69.849 67.6992 72.5C67.6992 75.151 69.8483 77.3 72.4992 77.3Z" stroke="#30A5F3" stroke-width="3"/>
</svg>
